<svg xmlns="http://www.w3.org/2000/svg" width="91" height="91" viewBox="0 0 91 91" id="glass">
<path fill="#043484" d="M69.777 16.013H25.282a2.159 2.159 0 0 0-2.156 2.156v2.303c0 6.522 3.762 12.388 9.647 15.146.087 6.553 5.444 11.855 12.017 11.855h2.077a1.09 1.09 0 0 0-.076.375v29.317l-15.425 5.626a1.126 1.126 0 0 0 .385 2.182h31.5a1.125 1.125 0 0 0 .312-2.212l-14.521-5.79V47.849a1.09 1.09 0 0 0-.076-.375h1.304c6.572 0 11.929-5.303 12.017-11.855 5.886-2.759 9.648-8.624 9.648-15.146V18.17a2.16 2.16 0 0 0-2.158-2.157zM38.119 82.724l10.064-3.671 9.208 3.671H38.119zm31.565-64.461v2.209c0 .778-.066 1.545-.187 2.296-1.988-1.05-11.166-5.241-22.171.171a23.99 23.99 0 0 1-3.951 1.535l-3.226-3.226c-.99-.99-2.719-.99-3.707 0L33.11 24.58c-4.224-1.208-6.943-3.66-7.734-4.448v-1.869h44.308zM42.79 27.07a.37.37 0 0 1 .001.524l-4.232 4.232c-.188.188-.333.191-.524-.001l-4.232-4.231a.369.369 0 0 1 0-.524l.054-.055c1.315.286 2.728.468 4.248.468a21.01 21.01 0 0 0 4.581-.52l.104.107zm-7.038-1.949l2.282-2.282a.37.37 0 0 1 .524.001l2.208 2.208a18.199 18.199 0 0 1-5.014.073zm24.977 8.726a1.126 1.126 0 0 0-.692 1.039v.57c0 5.386-4.382 9.768-9.768 9.768H44.79c-5.386 0-9.768-4.382-9.768-9.768v-.57c0-.454-.273-.864-.693-1.039a14.468 14.468 0 0 1-8.67-10.566 22.07 22.07 0 0 0 5.961 3.118 2.602 2.602 0 0 0 .59 2.788l4.232 4.23a2.603 2.603 0 0 0 1.854.769 2.6 2.6 0 0 0 1.854-.768l4.231-4.231c.771-.77.959-1.902.568-2.854a26.345 26.345 0 0 0 3.37-1.375c11.06-5.439 20.323-.097 20.415-.043.069.041.146.053.22.077a14.488 14.488 0 0 1-8.225 8.855z"></path>
<path fill="#043484" d="M55.896 31.038l-5.805-1.45c-1.381-.35-2.836.529-3.18 1.906l-1.452 5.807a2.63 2.63 0 0 0 1.907 3.18l5.807 1.452a2.615 2.615 0 0 0 3.178-1.908l1.453-5.808a2.63 2.63 0 0 0-1.908-3.179zm-.275 2.635l-1.452 5.808a.37.37 0 0 1-.358.28l-5.895-1.463a.375.375 0 0 1-.273-.452l1.452-5.807c.044-.174.198-.27.413-.27a.47.47 0 0 1 .037.001l5.803 1.45a.375.375 0 0 1 .273.453z"></path>
</svg>
