<?xml version="1.0" encoding="UTF-8"?>
<svg version="1.1" xmlns="http://www.w3.org/2000/svg" width="64" height="64">
<path d="M0 0 C-0.33 0.99 -0.66 1.98 -1 3 C-5.455 3.495 -5.455 3.495 -10 4 C-11.07525194 6.65228812 -12.09456151 9.28368454 -13 12 C-12.071875 12.4125 -11.14375 12.825 -10.1875 13.25 C-6.345262 15.359464 -4.71276171 17.26942629 -3.05078125 21.3046875 C-0.59469671 29.85550035 1.18303121 39.99108177 -2.5 48.4375 C-6.01312976 54.25104213 -11.49167469 59.00611999 -18 61 C-25.98898205 61.76937565 -34.48176634 62.34257051 -41 57 C-45.9746176 52.25330313 -49.71021264 47.88125032 -50.23828125 40.80859375 C-50.28781424 38.55875318 -50.32946424 36.30872542 -50.36328125 34.05859375 C-51.18400847 30.11608203 -52.75110547 29.22133719 -56 27 C-57.84862688 23.30274625 -57.47587094 19.03538558 -57 15 C-55.20353146 12.06576805 -54.0558929 10.52794645 -51 9 C-49.39924548 8.87817266 -47.79283863 8.82453402 -46.1875 8.8125 C-45.33542969 8.79832031 -44.48335937 8.78414062 -43.60546875 8.76953125 C-41 9 -41 9 -38.76953125 10.00390625 C-34.66043291 11.4817907 -30.82520193 11.2707189 -26.5 11.125 C-25.65824219 11.1353125 -24.81648438 11.145625 -23.94921875 11.15625 C-21.39347562 11.06770457 -19.40125203 10.89143936 -17 10 C-15.27127456 8.0557431 -14.17342078 6.19700702 -13.04663086 3.85693359 C-12 2 -12 2 -9.0625 0.5 C-5.97535033 -0.00402444 -3.12219115 -0.14867577 0 0 Z M-52.5 13.5 C-54.59658631 16.99431052 -54.9849315 20.0277143 -54 24 C-51.66169042 26.5404226 -51.66169042 26.5404226 -49 28 C-48.34 25.03 -47.68 22.06 -47 19 C-44.69 20.98 -42.38 22.96 -40 25 C-39.34 24.67 -38.68 24.34 -38 24 C-37.51785874 18.46831728 -37.51785874 18.46831728 -39.5 13.5 C-43.88057003 10.87165798 -48.11942997 10.87165798 -52.5 13.5 Z M-35 14 C-35.33 14.66 -35.66 15.32 -36 16 C-30.39 16 -24.78 16 -19 16 C-19 15.34 -19 14.68 -19 14 C-24.66286862 13.08989612 -29.34877422 12.90941257 -35 14 Z M-16 15 C-16 15.66 -16 16.32 -16 17 C-13.69 17.66 -11.38 18.32 -9 19 C-11.17424117 16.49962266 -12.73045798 15.56371414 -16 15 Z M-34 19 C-34.66 21.31 -35.32 23.62 -36 26 C-34.33657163 27.66342837 -32.2174291 27.36048097 -29.9375 27.5625 C-29.01839844 27.64628906 -28.09929688 27.73007812 -27.15234375 27.81640625 C-26.44207031 27.87699219 -25.73179688 27.93757813 -25 28 C-23.68 25.03 -22.36 22.06 -21 19 C-25.61073111 17.70323188 -29.33840089 18.28890861 -34 19 Z M-18 19 C-20.2013866 22.80427492 -20.2013866 22.80427492 -21 27 C-16.94393835 26.53199289 -13.53411321 26.12046792 -10 24 C-12.52788007 21.20127563 -14.20411134 19.54226981 -18 19 Z M-8.71704102 25.85961914 C-14.61436747 28.81054783 -19.38880159 29.6087078 -25.9375 29.4375 C-27.24702637 29.42203125 -27.24702637 29.42203125 -28.58300781 29.40625 C-34.7225699 29.25041192 -40.33020661 28.5066455 -46 26 C-47.53002443 32.72470415 -48.08445765 39.86078049 -45.8125 46.4375 C-41.30687821 52.80751701 -36.11267029 56.95313847 -28.5625 58.875 C-20.98769619 59.14078259 -14.83782744 56.73757171 -9 52 C-3.68296146 45.18328392 -3.52523801 39.38010113 -4 31 C-4.84302993 27.44457748 -4.84302993 27.44457748 -6 25 C-7.1710006 24.92538812 -7.1710006 24.92538812 -8.71704102 25.85961914 Z " fill="#043484" transform="translate(59,1)"/>
<path d="M0 0 C0.99 0 1.98 0 3 0 C2.67 1.65 2.34 3.3 2 5 C1.01 5 0.02 5 -1 5 C-0.67 3.35 -0.34 1.7 0 0 Z " fill="#043484" transform="translate(24,50)"/>
<path d="M0 0 C0.99 0.33 1.98 0.66 3 1 C2.67 2.32 2.34 3.64 2 5 C1.01 5 0.02 5 -1 5 C-0.67 3.35 -0.34 1.7 0 0 Z " fill="#043484" transform="translate(29,52)"/>
<path d="M0 0 C0.99 0 1.98 0 3 0 C2.67 1.32 2.34 2.64 2 4 C1.01 4 0.02 4 -1 4 C-0.67 2.68 -0.34 1.36 0 0 Z " fill="#043484" transform="translate(20,47)"/>
<path d="M0 0 C0.99 0 1.98 0 3 0 C3 0.99 3 1.98 3 3 C1.68 3.33 0.36 3.66 -1 4 C-0.67 2.68 -0.34 1.36 0 0 Z " fill="#043484" transform="translate(17,43)"/>
</svg>
