<?xml version="1.0" encoding="UTF-8"?>
<svg version="1.1" xmlns="http://www.w3.org/2000/svg" width="64" height="64">
<path fill="#043484" d="M0 0 C1.67542976 0.28604898 3.34385343 0.61781233 5 1 C4.67 2.65 4.34 4.3 4 6 C4.66 6.33 5.32 6.66 6 7 C6 11.29 6 15.58 6 20 C6.66 20 7.32 20 8 20 C8 20.99 8 21.98 8 23 C11.96 22.505 11.96 22.505 16 22 C17.98 16.555 17.98 16.555 20 11 C21.32 11 22.64 11 24 11 C23.49202991 15.3177458 22.80317221 19.03302114 21 23 C21.66 23 22.32 23 23 23 C23.78053097 35.8180531 23.78053097 35.8180531 20.8125 40.3125 C18 42 18 42 13 43 C13 47.95 13 52.9 13 58 C15.31 58 17.62 58 20 58 C20.495 59.98 20.495 59.98 21 62 C14.4 62 7.8 62 1 62 C1 61.01 1 60.02 1 59 C-0.13179687 58.95101562 -1.26359375 58.90203125 -2.4296875 58.8515625 C-3.91148339 58.77653486 -5.393253 58.70098703 -6.875 58.625 C-7.62136719 58.5940625 -8.36773437 58.563125 -9.13671875 58.53125 C-14.7734375 58.2265625 -14.7734375 58.2265625 -17 56 C-17.24050903 54.08908081 -17.24050903 54.08908081 -17.22705078 51.73388672 C-17.22689972 50.85312469 -17.22674866 49.97236267 -17.22659302 49.06491089 C-17.21627045 48.11278717 -17.20594788 47.16066345 -17.1953125 46.1796875 C-17.19106766 44.71899338 -17.19106766 44.71899338 -17.18673706 43.22879028 C-17.17551913 40.11073651 -17.1504117 36.99296732 -17.125 33.875 C-17.11497228 31.76432706 -17.10584607 29.65364962 -17.09765625 27.54296875 C-17.07557453 22.36186909 -17.04103374 17.18098283 -17 12 C-12.05 12 -7.1 12 -2 12 C-2 11.34 -2 10.68 -2 10 C-7.28 9.67 -12.56 9.34 -18 9 C-17.67 25.5 -17.34 42 -17 59 C-11.39 59.33 -5.78 59.66 0 60 C0 60.66 0 61.32 0 62 C-6.27 62 -12.54 62 -19 62 C-19 43.85 -19 25.7 -19 7 C-12.73 7 -6.46 7 0 7 C-0.33 5.02 -0.66 3.04 -1 1 C-0.67 0.67 -0.34 0.34 0 0 Z M1 2 C1 2.66 1 3.32 1 4 C1.66 4 2.32 4 3 4 C3 3.34 3 2.68 3 2 C2.34 2 1.68 2 1 2 Z M1 9 C0.67 9.99 0.34 10.98 0 12 C1.32 12 2.64 12 4 12 C3.79375 12.78375 3.5875 13.5675 3.375 14.375 C3.25125 15.24125 3.1275 16.1075 3 17 C3.66 17.66 4.32 18.32 5 19 C5 15.7 5 12.4 5 9 C3.68 9 2.36 9 1 9 Z M-16 14 C-16 18.62 -16 23.24 -16 28 C-11.76014063 23.88862122 -7.72154258 19.59026002 -4 15 C-4 14.67 -4 14.34 -4 14 C-7.96 14 -11.92 14 -16 14 Z M-1 14 C-0.67 15.98 -0.34 17.96 0 20 C0.66 20 1.32 20 2 20 C1.67 18.02 1.34 16.04 1 14 C0.34 14 -0.32 14 -1 14 Z M-3 18 C-2 20 -2 20 -2 20 Z M-6 19 C-6.33 19.99 -6.66 20.98 -7 22 C-6.01 21.67 -5.02 21.34 -4 21 C-4.66 20.34 -5.32 19.68 -6 19 Z M-2 21 C-2 22.65 -2 24.3 -2 26 C-1.67 26 -1.34 26 -1 26 C-1 24.35 -1 22.7 -1 21 C-1.33 21 -1.66 21 -2 21 Z M8 25 C7.67 25.66 7.34 26.32 7 27 C9.64 27 12.28 27 15 27 C15 26.34 15 25.68 15 25 C12.69 25 10.38 25 8 25 Z M20 25 C21 27 21 27 21 27 Z M-9 26 C-8.67 26.99 -8.34 27.98 -8 29 C-8 28.01 -8 27.02 -8 26 C-8.33 26 -8.66 26 -9 26 Z M-3 26 C-2 28 -2 28 -2 28 Z M-12 27 C-11 29 -11 29 -11 29 Z M3 29 C3 29.66 3 30.32 3 31 C3.99 31 4.98 31 6 31 C6 30.34 6 29.68 6 29 C5.01 29 4.02 29 3 29 Z M8 29 C9 31 9 31 9 31 Z M12 29 C12 30.32 12 31.64 12 33 C11.01 33.33 10.02 33.66 9 34 C9.33 35.32 9.66 36.64 10 38 C9.01 38.33 8.02 38.66 7 39 C9.64 39 12.28 39 15 39 C14.01 38.67 13.02 38.34 12 38 C12.66 35.03 13.32 32.06 14 29 C13.34 29 12.68 29 12 29 Z M18 29 C17.34 31.97 16.68 34.94 16 38 C19.33477709 35.32958675 19.33477709 35.32958675 19.1875 31.8125 C19.125625 30.884375 19.06375 29.95625 19 29 C18.67 29 18.34 29 18 29 Z M-13 31 C-13 31.33 -13 31.66 -13 32 C-11.02 32 -9.04 32 -7 32 C-7 31.67 -7 31.34 -7 31 C-8.98 31 -10.96 31 -13 31 Z M-3 31 C-3.33 31.66 -3.66 32.32 -4 33 C-3.34 33 -2.68 33 -2 33 C-2.33 32.34 -2.66 31.68 -3 31 Z M6 32 C6 32.99 6 33.98 6 35 C5.34 35 4.68 35 4 35 C4.33 35.99 4.66 36.98 5 38 C5.66 38 6.32 38 7 38 C7 36.02 7 34.04 7 32 C6.67 32 6.34 32 6 32 Z M-16 33 C-16 37.62 -16 42.24 -16 47 C-12.3672609 44.57817393 -12.31868053 43.49554883 -11.3125 39.375 C-11.06113281 38.37210938 -10.80976563 37.36921875 -10.55078125 36.3359375 C-10.36902344 35.56507812 -10.18726563 34.79421875 -10 34 C-10.66 34 -11.32 34 -12 34 C-12 35.32 -12 36.64 -12 38 C-12.99 38 -13.98 38 -15 38 C-14.67 36.35 -14.34 34.7 -14 33 C-14.66 33 -15.32 33 -16 33 Z M-6 34 C-6.33 35.98 -6.66 37.96 -7 40 C-4.525 40.495 -4.525 40.495 -2 41 C-1.67 40.34 -1.34 39.68 -1 39 C-1.66 39 -2.32 39 -3 39 C-3 37.68 -3 36.36 -3 35 C-3.99 34.67 -4.98 34.34 -6 34 Z M-10 40 C-9.65555119 42.47266765 -9.65555119 42.47266765 -9 45 C-8.34 45.33 -7.68 45.66 -7 46 C-7 45.01 -7 44.02 -7 43 C-6.34 42.67 -5.68 42.34 -5 42 C-6.32 42 -7.64 42 -9 42 C-9.33 41.34 -9.66 40.68 -10 40 Z M2 41 C2.33 41.99 2.66 42.98 3 44 C3.33 43.01 3.66 42.02 4 41 C3.34 41 2.68 41 2 41 Z M4 42 C3.93941406 42.98742188 3.87882812 43.97484375 3.81640625 44.9921875 C3.73261719 46.27351563 3.64882813 47.55484375 3.5625 48.875 C3.44068359 50.78925781 3.44068359 50.78925781 3.31640625 52.7421875 C3 56 3 56 2 58 C2.99 58 3.98 58 5 58 C5 52.72 5 47.44 5 42 C4.67 42 4.34 42 4 42 Z M6 43 C6 47.95 6 52.9 6 58 C6.99 58 7.98 58 9 58 C9 53.38 9 48.76 9 44 C8.01 43.67 7.02 43.34 6 43 Z M-3 46 C-3.33 47.32 -3.66 48.64 -4 50 C-2.02 49.67 -0.04 49.34 2 49 C2 48.34 2 47.68 2 47 C0.35 46.67 -1.3 46.34 -3 46 Z M-14 48 C-14 48.99 -14 49.98 -14 51 C-12.68 51.66 -11.36 52.32 -10 53 C-9.01 51.68 -8.02 50.36 -7 49 C-9.46278801 47.768606 -11.2795055 47.92840804 -14 48 Z M-6 51 C-7.32 52.65 -8.64 54.3 -10 56 C-6.37 56 -2.74 56 1 56 C1.66 54.35 2.32 52.7 3 51 C0.23723823 51.52268466 -2.3260876 52.10869587 -5 53 C-5.33 52.34 -5.66 51.68 -6 51 Z M-15 53 C-14.67 53.99 -14.34 54.98 -14 56 C-13.34 55.67 -12.68 55.34 -12 55 C-12.99 54.34 -13.98 53.68 -15 53 Z "  transform="translate(30,0)"/>
<path fill="#043484" d="M0 0 C0.99 0 1.98 0 3 0 C3 1.32 3 2.64 3 4 C2.01 4 1.02 4 0 4 C0 2.68 0 1.36 0 0 Z " transform="translate(16,15)"/>
</svg>
