<?xml version="1.0" encoding="UTF-8"?>
<svg version="1.1" xmlns="http://www.w3.org/2000/svg" width="52" height="52">
<path d="M0 0 C6.81536757 -0.38465895 13.16209322 1.05406294 19.8125 2.4375 C20.95654297 2.66759766 22.10058594 2.89769531 23.27929688 3.13476562 C31.70935315 4.85467657 31.70935315 4.85467657 34 6 C33.52989754 14.22235816 31.09525765 21.34796455 28.3125 29.0625 C27.89033203 30.29033203 27.46816406 31.51816406 27.03320312 32.78320312 C21.29624508 48.85187746 21.29624508 48.85187746 15 52 C7.40780239 52.91328546 1.84235174 51.20885332 -4.875 47.8125 C-5.70257813 47.42513672 -6.53015625 47.03777344 -7.3828125 46.63867188 C-11.92248295 44.42375202 -15.36949893 42.49318021 -18 38 C-18.4887168 35.19965275 -18.19460025 32.87035362 -18 30 C-12.81844139 30.93586867 -8.1876695 32.67787126 -3.3125 34.625 C-2.0121582 35.10259766 -2.0121582 35.10259766 -0.68554688 35.58984375 C5.4838716 38.07681556 5.4838716 38.07681556 7.02587891 40.83496094 C7.58203125 42.7734375 7.58203125 42.7734375 8 46 C10.31 46 12.62 46 15 46 C16.44370435 42.44386421 17.79386721 38.86498774 19.09375 35.25390625 C19.48433594 34.16916016 19.87492187 33.08441406 20.27734375 31.96679688 C20.68082031 30.84337891 21.08429687 29.71996094 21.5 28.5625 C21.90347656 27.44294922 22.30695312 26.32339844 22.72265625 25.16992188 C24.53548051 20.12931318 26.32055641 15.0869214 28 10 C27.34402832 9.88406494 26.68805664 9.76812988 26.01220703 9.64868164 C23.04922551 9.12316081 20.08711346 8.59289082 17.125 8.0625 C16.09246094 7.88009766 15.05992188 7.69769531 13.99609375 7.50976562 C12.51689453 7.24389648 12.51689453 7.24389648 11.0078125 6.97265625 C10.09660645 6.81031494 9.18540039 6.64797363 8.24658203 6.48071289 C6 6 6 6 4 5 C3.85304688 5.53625 3.70609375 6.0725 3.5546875 6.625 C1.17840052 14.92834761 -1.91090634 22.94236411 -5 31 C-6.65 30.67 -8.3 30.34 -10 30 C-9.41054142 25.81131279 -8.4409435 22.11289424 -6.93359375 18.1640625 C-6.53076172 17.10058594 -6.12792969 16.03710938 -5.71289062 14.94140625 C-5.29201172 13.84699219 -4.87113281 12.75257812 -4.4375 11.625 C-4.01275391 10.50738281 -3.58800781 9.38976562 -3.15039062 8.23828125 C-2.10520253 5.49025861 -1.05493476 2.74429248 0 0 Z " fill="#043484" transform="translate(18,0)"/>
<path d="M0 0 C0.721875 0.144375 1.44375 0.28875 2.1875 0.4375 C3.86676429 0.77335286 5.5537619 1.07691137 7.25 1.3125 C11.3900556 2.3475139 15.1447248 4.19415214 19 6 C18.34 7.32 17.68 8.64 17 10 C15.20620902 9.55005243 13.41501072 9.08975857 11.625 8.625 C10.62726562 8.36976562 9.62953125 8.11453125 8.6015625 7.8515625 C6 7 6 7 4 5 C1.42938689 4.35232207 1.42938689 4.35232207 -1 4 C-0.67 2.68 -0.34 1.36 0 0 Z " fill="#043484" transform="translate(19,19)"/>
<path d="M0 0 C6.59685426 -0.63840525 13.02999709 2.49645039 19 5 C18.67 6.65 18.34 8.3 18 10 C16.20620902 9.55005243 14.41501072 9.08975857 12.625 8.625 C11.62726562 8.36976562 10.62953125 8.11453125 9.6015625 7.8515625 C7 7 7 7 5 5 C2.42938689 4.35232207 2.42938689 4.35232207 0 4 C0 2.68 0 1.36 0 0 Z " fill="#043484" transform="translate(15,27)"/>
<path d="M0 0 C1.62853535 0.06420749 3.25449212 0.2012064 4.875 0.375 C6.20144531 0.51035156 6.20144531 0.51035156 7.5546875 0.6484375 C10 1 10 1 13 2 C12.67 3.65 12.34 5.3 12 7 C7.73052871 6.49770926 3.83163192 6.02851102 0 4 C-0.33 3.01 -0.66 2.02 -1 1 C-0.67 0.67 -0.34 0.34 0 0 Z " fill="#043484" transform="translate(28,13)"/>
<path d="M0 0 C1.65 0 3.3 0 5 0 C5.33 0.99 5.66 1.98 6 3 C5.67 3.66 5.34 4.32 5 5 C3.35 4.67 1.7 4.34 0 4 C0 2.68 0 1.36 0 0 Z " fill="#043484" transform="translate(21,11)"/>
</svg>
